<?xml version="1.0" standalone="no"?>
<!DOCTYPE svg PUBLIC "-//W3C//DTD SVG 20010904//EN"
 "http://www.w3.org/TR/2001/REC-SVG-20010904/DTD/svg10.dtd">
<svg version="1.0" xmlns="http://www.w3.org/2000/svg"
 width="260.000000pt" height="260.000000pt" viewBox="0 0 260.000000 260.000000"
 preserveAspectRatio="xMidYMid meet">
<metadata>
Created by potrace 1.11, written by Peter Selinger 2001-2013
</metadata>
<g transform="translate(0.000000,260.000000) scale(0.100000,-0.100000)"
fill="#000000" stroke="none">
<path d="M1125 2590 c-22 -5 -48 -6 -57 -4 -10 3 -18 0 -18 -6 0 -7 -6 -10
-14 -7 -8 3 -17 3 -20 -1 -4 -3 -17 -7 -29 -9 -12 -2 -41 -10 -63 -18 -23 -9
-52 -18 -64 -20 -53 -10 -310 -148 -310 -166 0 -5 -7 -9 -15 -9 -9 0 -18 -7
-21 -15 -4 -8 -10 -15 -14 -15 -17 0 -210 -185 -210 -201 0 -4 -8 -13 -17 -18
-10 -6 -14 -11 -10 -11 5 0 1 -7 -8 -16 -40 -41 -171 -282 -178 -329 -1 -11
-6 -25 -9 -31 -6 -8 -45 -143 -47 -159 -1 -3 -1 -6 -2 -7 -3 -12 -9 -83 -15
-191 -8 -159 17 -367 56 -452 5 -11 16 -40 24 -65 66 -201 242 -436 436 -581
56 -42 224 -143 240 -144 3 -1 14 -6 25 -12 31 -17 228 -77 248 -75 9 0 17 -2
17 -6 0 -11 90 -16 250 -16 158 0 240 6 283 23 15 6 27 8 27 6 0 -3 29 6 65
20 36 13 66 24 68 24 7 -1 51 17 115 47 39 19 75 34 78 33 4 0 10 3 13 8 3 4
38 29 76 54 124 82 272 228 351 346 38 56 154 279 152 292 0 3 1 8 2 11 1 3 3
12 5 20 3 8 13 45 24 81 10 36 22 85 26 110 10 57 12 338 4 409 -14 112 -62
266 -120 380 -18 36 -32 68 -31 73 1 4 -1 7 -6 7 -4 0 -16 16 -26 35 -11 19
-23 35 -28 35 -4 0 -7 4 -5 8 3 14 -87 125 -158 194 -66 65 -182 163 -194 163
-3 1 -24 12 -46 26 -97 63 -316 150 -411 165 -16 2 -42 7 -59 10 -53 10 -339
13 -380 4z m-940 -1296 c20 -26 18 -51 -5 -74 -24 -24 -48 -25 -77 -5 -23 16
-37 55 -20 55 6 0 7 3 4 7 -4 3 0 14 9 24 21 23 69 19 89 -7z m2325 -9 c21
-38 15 -60 -20 -75 -37 -15 -69 -5 -81 27 -12 33 -12 36 11 61 28 30 69 24 90
-13z"/>
</g>
</svg>
